<svg xmlns="http://www.w3.org/2000/svg"  viewBox="0 0 64 64" width="512px" height="512px"><linearGradient id="hsRK_wBDkz8LY3a~X~1yqa" x1="31.748" x2="31.748" y1="767.957" y2="762.844" gradientTransform="matrix(1 0 0 -1 -17.248 814.853)" gradientUnits="userSpaceOnUse" spreadMethod="reflect"><stop offset="0" stop-color="#6dc7ff"/><stop offset="1" stop-color="#e6abff"/></linearGradient><path fill="url(#hsRK_wBDkz8LY3a~X~1yqa)" d="M14.5 47A2.5 2.5 0 1 0 14.5 52A2.5 2.5 0 1 0 14.5 47Z"/><linearGradient id="hsRK_wBDkz8LY3a~X~1yqb" x1="50.651" x2="9.186" y1="13.359" y2="54.824" gradientUnits="userSpaceOnUse" spreadMethod="reflect"><stop offset="0" stop-color="#1a6dff"/><stop offset="1" stop-color="#c822ff"/></linearGradient><path fill="url(#hsRK_wBDkz8LY3a~X~1yqb)" d="M39.959,9L39.959,9c2.007,0,3.884,0.698,5.475,2.028l-6.522,6.517 C38.324,18.132,38,18.913,38,19.745c0,0.831,0.324,1.613,0.911,2.2l3.145,3.144c0.588,0.587,1.369,0.911,2.2,0.911 s1.613-0.324,2.2-0.911l6.523-6.518c1.422,1.702,2.115,3.731,2.011,5.917c-0.12,2.511-1.326,5.034-3.397,7.104 C49.396,33.79,46.724,35,44.07,35c-1.978,0-3.855-0.678-5.426-1.96l-1.499-1.223l-1.272,1.458L18.537,53.144 c-1.001,1.144-2.389,1.802-3.909,1.853C14.57,54.999,14.511,55,14.452,55c-1.437,0-2.843-0.582-3.858-1.597 c-1.061-1.061-1.641-2.529-1.591-4.029c0.05-1.5,0.726-2.927,1.853-3.913l19.873-17.33l1.453-1.267l-1.213-1.499 c-2.354-2.909-2.658-6.979-0.757-10.129c2.084-3.456,5.329-5.763,8.68-6.172C39.248,9.022,39.607,9,39.959,9 M39.959,7 c-0.433,0-0.869,0.027-1.308,0.08c-3.956,0.483-7.752,3.145-10.151,7.124c-2.366,3.92-1.958,8.87,0.915,12.42L9.542,43.953 c-1.544,1.351-2.469,3.302-2.538,5.354c-0.068,2.051,0.725,4.059,2.176,5.51C10.575,56.212,12.486,57,14.452,57 c0.081,0,0.161-0.001,0.242-0.004c2.079-0.07,3.978-0.969,5.348-2.535L37.379,34.59c1.975,1.611,4.303,2.41,6.69,2.41 c3.093,0,6.286-1.341,8.938-3.992c5.011-5.01,5.341-11.951,0.786-16.505l-0.786-0.786l-7.965,7.958 C44.825,23.892,44.541,24,44.256,24c-0.285,0-0.569-0.108-0.786-0.325l-3.145-3.144c-0.434-0.434-0.434-1.138,0-1.572l7.965-7.958 l-0.786-0.786C45.405,8.116,42.764,7,39.959,7L39.959,7z M30.707,34.707l-1.414-1.414l-11,11l1.414,1.414L30.707,34.707z"/></svg>