<svg xmlns="http://www.w3.org/2000/svg" xmlns:xlink="http://www.w3.org/1999/xlink" version="1.1" width="64" height="64" enable-background="new 0 0 64 64" xml:space="preserve"><rect id="backgroundrect" width="100%" height="100%" x="0" y="0" fill="none" stroke="none"/>


<g class="currentLayer" style=""><title>Layer 1</title><path d="M32,5c14.888,0,27,12.112,27,27S46.888,59,32,59S5,46.888,5,32S17.112,5,32,5 M32,2C15.433,2,2,15.432,2,32  c0,16.568,13.433,30,30,30s30-13.432,30-30C62,15.432,48.567,2,32,2L32,2z" id="svg_1" class="selected" fill="#ffffff" fill-opacity="1"/><path d="M16.021,35.325l11.959,7.826c2.762,1.808,5.02,0.586,5.02-2.714V37.93l7.98,5.222c2.762,1.808,5.02,0.586,5.02-2.714V23.563  c0-3.3-2.256-4.516-5.012-2.702L33,26.117v-2.555c0-3.3-2.256-4.516-5.012-2.702l-11.977,7.881  C13.256,30.555,13.259,33.518,16.021,35.325z M18.139,30.933l10.191-6.705c0.918-0.604,1.67-0.199,1.67,0.9v4.554  c0,1.1,0.752,1.505,1.672,0.9l9.658-6.354c0.918-0.604,1.67-0.199,1.67,0.9v13.761c0,1.1-0.752,1.507-1.674,0.905l-9.652-6.318  C30.754,32.874,30,33.281,30,34.381v4.508c0,1.1-0.752,1.507-1.674,0.904l-10.184-6.665C17.221,32.525,17.221,31.537,18.139,30.933z  " id="svg_2" class="" fill="#ffffff" fill-opacity="1"/></g></svg>