<svg xmlns="http://www.w3.org/2000/svg" xmlns:xlink="http://www.w3.org/1999/xlink" version="1.1" width="64" height="64" enable-background="new 0 0 64 64" xml:space="preserve" style=""><rect id="backgroundrect" width="100%" height="100%" x="0" y="0" fill="none" stroke="none"/>


<g class="currentLayer" style=""><title>Layer 1</title><path d="M32,5c14.888,0,27,12.112,27,27S46.888,59,32,59S5,46.888,5,32S17.112,5,32,5 M32,2C15.433,2,2,15.432,2,32  c0,16.568,13.433,30,30,30s30-13.432,30-30C62,15.432,48.567,2,32,2L32,2z" id="svg_1" class="selected" fill="#ffffff" fill-opacity="1"/><path d="M38.5,17.563c-2.75,0-5,2.25-5,5v3.117l-7.988-5.257c-2.756-1.813-5.012-0.598-5.012,2.702V40  c0,3.3,2.259,4.521,5.021,2.714l7.979-5.222v3.945c0,2.75,2.25,5,5,5s5-2.25,5-5V22.563C43.5,19.813,41.25,17.563,38.5,17.563z   M40.5,28.285c0,1.1,0,2.591,0,3.313s0,2.213,0,3.313v6.527c0,1.1-0.9,2-2,2s-2-0.9-2-2v-3.909c0-1.1,0-2.807,0-3.792  c0-0.986-0.753-1.3-1.674-0.698l-9.652,6.318c-0.921,0.602-1.674,0.194-1.674-0.905V24.69c0-1.1,0.752-1.505,1.671-0.9l9.658,6.354  c0.919,0.604,1.671,0.292,1.671-0.695c0-0.988,0-2.696,0-3.796v-3.091c0-1.1,0.9-2,2-2s2,0.9,2,2V28.285z" id="svg_2" class="" fill="#ffffff" fill-opacity="1"/></g></svg>