<?xml version="1.0" encoding="UTF-8"?>
<!DOCTYPE svg PUBLIC "-//W3C//DTD SVG 1.1//EN" "http://www.w3.org/Graphics/SVG/1.1/DTD/svg11.dtd">
<svg xmlns="http://www.w3.org/2000/svg" version="1.1" width="512px" height="512px" style="shape-rendering:geometricPrecision; text-rendering:geometricPrecision; image-rendering:optimizeQuality; fill-rule:evenodd; clip-rule:evenodd" xmlns:xlink="http://www.w3.org/1999/xlink">
<g><path style="opacity:1" fill="#fefffe" d="M 39.5,-0.5 C 98.1667,-0.5 156.833,-0.5 215.5,-0.5C 236.858,7.89311 244.025,23.2264 237,45.5C 232.258,54.2351 225.092,60.0684 215.5,63C 156.833,63.6667 98.1667,63.6667 39.5,63C 20.9343,56.395 13.101,43.2284 16,23.5C 17.3923,17.7863 20.059,12.7863 24,8.5C 28.5995,4.37379 33.7662,1.37379 39.5,-0.5 Z"/></g>
<g><path style="opacity:1" fill="#fefffe" d="M 327.5,-0.5 C 332.833,-0.5 338.167,-0.5 343.5,-0.5C 360.037,5.50363 368.537,17.5036 369,35.5C 376.463,45.2969 384.963,54.1303 394.5,62C 415.873,77.6996 436.373,94.533 456,112.5C 492.598,148.875 504.264,192.208 491,242.5C 483.965,270.758 470.132,294.925 449.5,315C 429.484,324.432 413.65,319.932 402,301.5C 398.426,291.357 398.759,281.357 403,271.5C 423.75,248.917 432.75,222.25 430,191.5C 427.042,181.885 422.375,173.219 416,165.5C 400.936,150.322 384.936,136.322 368,123.5C 367.985,227.526 367.318,331.526 366,435.5C 354.673,477.999 327.506,503.332 284.5,511.5C 275.833,511.5 267.167,511.5 258.5,511.5C 212.513,502.346 185.013,474.679 176,428.5C 172.019,388.306 186.519,356.806 219.5,334C 245.712,318.425 273.378,315.259 302.5,324.5C 303.333,224.168 303.833,123.835 304,23.5C 305.392,17.7863 308.059,12.7863 312,8.5C 316.6,4.37379 321.766,1.37379 327.5,-0.5 Z"/></g>
<g><path style="opacity:1" fill="#fefffe" d="M 39.5,95.5 C 98.1676,95.3333 156.834,95.5 215.5,96C 234.066,102.605 241.899,115.772 239,135.5C 235.833,148 228,155.833 215.5,159C 156.833,159.667 98.1667,159.667 39.5,159C 20.9343,152.395 13.101,139.228 16,119.5C 18.0652,111.857 22.2319,105.69 28.5,101C 32.0167,98.6738 35.6834,96.8405 39.5,95.5 Z"/></g>
<g><path style="opacity:1" fill="#fefffe" d="M 39.5,191.5 C 98.1676,191.333 156.834,191.5 215.5,192C 234.066,198.605 241.899,211.772 239,231.5C 235.833,244 228,251.833 215.5,255C 156.833,255.667 98.1667,255.667 39.5,255C 20.9343,248.395 13.101,235.228 16,215.5C 18.0652,207.857 22.2319,201.69 28.5,197C 32.0167,194.674 35.6834,192.84 39.5,191.5 Z"/></g>
</svg>
