<svg xmlns="http://www.w3.org/2000/svg" xmlns:xlink="http://www.w3.org/1999/xlink" version="1.1" width="64" height="64" enable-background="new 0 0 64 64" xml:space="preserve"><rect id="backgroundrect" width="100%" height="100%" x="0" y="0" fill="none" stroke="none"/>


<g class="currentLayer" style=""><title>Layer 1</title><path d="M32,5c14.888,0,27,12.112,27,27S46.888,59,32,59S5,46.888,5,32S17.112,5,32,5 M32,2C15.433,2,2,15.432,2,32  c0,16.568,13.433,30,30,30s30-13.432,30-30C62,15.432,48.567,2,32,2L32,2z" id="svg_1" class="" fill="#ffffff" fill-opacity="1"/><path d="M20.5,22.563v18.875c0,2.75,2.25,5,5,5s5-2.25,5-5v-3.945l7.979,5.222C41.241,44.521,43.5,43.3,43.5,40V23.125  c0-3.3-2.256-4.516-5.012-2.702L30.5,25.68v-3.117c0-2.75-2.25-5-5-5S20.5,19.813,20.5,22.563z M23.5,22.563c0-1.1,0.9-2,2-2  s2,0.9,2,2v3.091c0,1.1,0,2.808,0,3.796c0,0.987,0.752,1.3,1.671,0.695l9.658-6.354c0.919-0.604,1.671-0.199,1.671,0.9v13.761  c0,1.1-0.753,1.507-1.674,0.905l-9.652-6.318c-0.921-0.602-1.674-0.288-1.674,0.698c0,0.985,0,2.692,0,3.792v3.909c0,1.1-0.9,2-2,2  s-2-0.9-2-2V34.91c0-1.1,0-2.591,0-3.313s0-2.213,0-3.313V22.563z" id="svg_2" class="selected" fill="#ffffff" fill-opacity="1"/></g></svg>