<svg xmlns="http://www.w3.org/2000/svg" xmlns:xlink="http://www.w3.org/1999/xlink" version="1.1" width="64" height="64" enable-background="new 0 0 64 64" xml:space="preserve"><rect id="backgroundrect" width="100%" height="100%" x="0" y="0" fill="none" stroke="none"/>


<g class="currentLayer" style=""><title>Layer 1</title><path d="M32,5c14.888,0,27,12.112,27,27S46.888,59,32,59S5,46.888,5,32S17.112,5,32,5 M32,2C15.433,2,2,15.432,2,32  c0,16.568,13.433,30,30,30s30-13.432,30-30C62,15.432,48.567,2,32,2L32,2z" id="svg_1" class="selected" fill="#ffffff" fill-opacity="1"/><path d="M49.566,44.698c-0.065-0.825-0.789-1.44-1.613-1.376l-2.126,0.17c6.064-7.306,5.433-18.188-1.623-24.704  c-7.291-6.734-18.702-6.28-25.437,1.013c-6.733,7.291-6.279,18.702,1.013,25.436c3.036,2.803,6.979,4.487,11.101,4.741  c0.827,0.051,1.538-0.578,1.589-1.405c0.052-0.826-0.577-1.54-1.405-1.589c-3.433-0.211-6.719-1.614-9.249-3.951  c-6.078-5.612-6.455-15.12-0.843-21.197c5.611-6.077,15.119-6.456,21.196-0.843c5.813,5.368,6.396,14.295,1.525,20.379l-0.001-1.982  c0-0.827-0.672-1.5-1.499-1.499c-0.83,0-1.501,0.673-1.5,1.5v5.896c-0.001,0.418,0.176,0.817,0.482,1.101  c0.307,0.284,0.72,0.427,1.137,0.394l5.876-0.468C49.016,46.247,49.633,45.524,49.566,44.698z" id="svg_2" class="" fill="#ffffff" fill-opacity="1"/></g></svg>