<svg xmlns="http://www.w3.org/2000/svg" xmlns:xlink="http://www.w3.org/1999/xlink" version="1.1" width="64" height="64" enable-background="new 0 0 64 64" xml:space="preserve"><rect id="backgroundrect" width="100%" height="100%" x="0" y="0" fill="none" stroke="none"/>



<g class="currentLayer" style=""><title>Layer 1</title><path d="M32,5c14.888,0,27,12.112,27,27S46.888,59,32,59S5,46.888,5,32S17.112,5,32,5 M32,2C15.433,2,2,15.432,2,32  c0,16.568,13.433,30,30,30s30-13.432,30-30C62,15.432,48.567,2,32,2L32,2z" id="svg_1" class="" fill="#ffffff" fill-opacity="1"/><path d="M49.6,20.898l-4.33-4c-0.607-0.563-1.557-0.525-2.119,0.084c-0.563,0.607-0.523,1.557,0.084,2.119l1.531,1.415  c-7.633,0.16-13.879,1.735-15.336,12.787C28.273,42.083,24.352,43.5,15.417,43.5c-0.829,0-1.5,0.672-1.5,1.5s0.671,1.5,1.5,1.5  c8.372,0,15.428-0.964,16.987-12.804c1.08-8.203,4.578-9.978,12.32-10.175l-1.49,1.377c-0.607,0.562-0.646,1.512-0.084,2.119  c0.563,0.609,1.512,0.646,2.119,0.084l4.33-4c0.309-0.283,0.482-0.684,0.482-1.102S49.908,21.182,49.6,20.898z" id="svg_2" class="selected" fill="#41e8e8" fill-opacity="1"/><path d="M13.917,20c0-0.828,0.671-1.5,1.5-1.5c5.97,0,11.271,0.494,14.386,5.07c-0.642,0.881-1.213,1.891-1.705,3.041  c-1.98-4.277-5.872-5.111-12.681-5.111C14.589,21.5,13.917,20.828,13.917,20z M45.27,37.898c-0.607-0.563-1.557-0.525-2.119,0.084  c-0.563,0.607-0.523,1.558,0.084,2.119l1.49,1.377c-4.947-0.126-8.155-0.905-10.112-3.585c-0.329,1.173-0.727,2.227-1.18,3.175  c2.838,2.719,6.841,3.32,11.333,3.415l-1.531,1.415c-0.607,0.563-0.646,1.512-0.084,2.119c0.563,0.609,1.512,0.646,2.119,0.084  l4.33-4c0.309-0.283,0.482-0.684,0.482-1.102s-0.174-0.818-0.482-1.102L45.27,37.898z" id="svg_3" class="" fill="#41e8e8" fill-opacity="1"/></g></svg>